<?xml version="1.0" encoding="utf-8"?>
<!-- Generator: Adobe Illustrator 19.1.0, SVG Export Plug-In . SVG Version: 6.00 Build 0)  -->
<svg version="1.1" id="Calque_1" xmlns="http://www.w3.org/2000/svg" xmlns:xlink="http://www.w3.org/1999/xlink" x="0px" y="0px"
	 viewBox="0 0 283.5 283.5" style="enable-background:new 0 0 283.5 283.5;" xml:space="preserve">
<style type="text/css">
	.st0{fill:#FFFFFF;stroke:#000000;stroke-width:3;stroke-miterlimit:10;}
	.st1{fill:none;stroke:#000000;stroke-width:3;stroke-miterlimit:10;}
	.st2{fill:none;stroke:#000000;stroke-width:2.6748;stroke-miterlimit:10;}
	.st3{fill:none;stroke:#000000;stroke-width:2.3647;stroke-miterlimit:10;}
</style>
<rect x="78.4" y="56.2" class="st0" width="125.2" height="176.1"/>
<line class="st1" x1="86.7" y1="98" x2="191.8" y2="98"/>
<line class="st2" x1="99.3" y1="80.4" x2="182.8" y2="80.4"/>
<line class="st1" x1="87.7" y1="179.4" x2="192.8" y2="179.4"/>
<line class="st1" x1="87.6" y1="191.7" x2="192.7" y2="191.7"/>
<line class="st1" x1="87.3" y1="203.1" x2="192.4" y2="203.1"/>
<line class="st1" x1="87.1" y1="214" x2="192.2" y2="214"/>
<rect x="125.2" y="115.2" class="st3" width="33.7" height="49.4"/>
<g>
	<path d="M140.7,136l-3.9-0.7c0.3-1.3,1-2.2,1.9-2.9c0.9-0.7,2.3-1,4-1c2,0,3.4,0.4,4.3,1.1s1.3,1.7,1.3,2.8c0,0.6-0.2,1.2-0.5,1.8
		s-0.9,1-1.6,1.4c0.6,0.1,1,0.3,1.3,0.5c0.5,0.3,0.9,0.7,1.2,1.2c0.3,0.5,0.4,1.1,0.4,1.8c0,0.9-0.2,1.7-0.7,2.5
		c-0.5,0.8-1.1,1.4-2,1.9c-0.9,0.4-2,0.7-3.4,0.7c-1.4,0-2.4-0.2-3.2-0.5c-0.8-0.3-1.4-0.8-1.9-1.4c-0.5-0.6-0.9-1.4-1.2-2.3
		l4.2-0.6c0.2,0.8,0.4,1.4,0.8,1.7c0.3,0.3,0.8,0.5,1.3,0.5c0.6,0,1-0.2,1.4-0.6s0.6-1,0.6-1.6c0-0.7-0.2-1.2-0.5-1.6
		c-0.4-0.4-0.8-0.6-1.5-0.6c-0.3,0-0.8,0.1-1.4,0.2l0.2-3c0.2,0,0.4,0.1,0.5,0.1c0.5,0,1-0.2,1.4-0.5c0.4-0.3,0.5-0.8,0.5-1.2
		c0-0.5-0.1-0.8-0.4-1.1s-0.6-0.4-1.1-0.4c-0.5,0-0.9,0.1-1.2,0.4C141,134.8,140.8,135.3,140.7,136z"/>
</g>
</svg>
