<?xml version="1.0" encoding="utf-8"?>
<!-- Generator: Adobe Illustrator 19.1.0, SVG Export Plug-In . SVG Version: 6.00 Build 0)  -->
<svg version="1.1" id="Calque_1" xmlns="http://www.w3.org/2000/svg" xmlns:xlink="http://www.w3.org/1999/xlink" x="0px" y="0px"
	 viewBox="0 0 283.5 283.5" style="enable-background:new 0 0 283.5 283.5;" xml:space="preserve">
<g>
	<path d="M169.5,152.5l36.3,11c-2.4,10.2-6.3,18.7-11.5,25.5c-5.2,6.8-11.8,12-19.5,15.5c-7.8,3.5-17.7,5.2-29.7,5.2
		c-14.6,0-26.5-2.1-35.7-6.4c-9.2-4.2-17.2-11.7-23.9-22.4c-6.7-10.7-10.1-24.3-10.1-41c0-22.2,5.9-39.2,17.7-51.2
		s28.5-17.9,50.1-17.9c16.9,0,30.2,3.4,39.9,10.2c9.7,6.8,16.9,17.3,21.6,31.5l-36.6,8.1c-1.3-4.1-2.6-7.1-4-9
		c-2.3-3.2-5.2-5.6-8.5-7.3c-3.4-1.7-7.1-2.6-11.3-2.6c-9.4,0-16.6,3.8-21.6,11.3c-3.8,5.6-5.7,14.4-5.7,26.4
		c0,14.9,2.3,25.1,6.8,30.6c4.5,5.5,10.9,8.3,19,8.3c7.9,0,13.9-2.2,18-6.7C164.7,167.4,167.6,160.9,169.5,152.5z"/>
</g>
</svg>
