<?xml version="1.0" encoding="utf-8"?>
<!-- Generator: Adobe Illustrator 19.1.0, SVG Export Plug-In . SVG Version: 6.00 Build 0)  -->
<svg version="1.1" id="Calque_1" xmlns="http://www.w3.org/2000/svg" xmlns:xlink="http://www.w3.org/1999/xlink" x="0px" y="0px"
	 viewBox="0 0 283.5 283.5" style="enable-background:new 0 0 283.5 283.5;" xml:space="preserve">
<style type="text/css">
	.st0{fill:#010202;}
	.st1{fill:#FFFFFF;}
	.st2{fill:none;stroke:#010202;stroke-width:4;stroke-miterlimit:10;}
	.st3{fill:none;stroke:#010202;stroke-width:3.5109;stroke-miterlimit:10;}
</style>
<ellipse class="st0" cx="86.7" cy="142.1" rx="42.2" ry="57.7"/>
<path class="st1" d="M91.4,160.2h37.8c0,0-1.2,30.4-15.5,32.9C99.5,195.5,91.4,160.2,91.4,160.2z"/>
<path class="st1" d="M89.6,220.3"/>
<ellipse class="st1" cx="107.9" cy="129.6" rx="6.8" ry="7.4"/>
<g>
	<ellipse class="st0" cx="205.2" cy="141.9" rx="42.2" ry="57.7"/>
	<path class="st1" d="M200.6,160h-37.8c0,0,1.2,30.4,15.5,32.9C192.5,195.3,200.6,160,200.6,160z"/>
	<path class="st1" d="M202.4,220.1"/>
	<ellipse class="st1" cx="184.1" cy="129.4" rx="6.8" ry="7.4"/>
</g>
<line class="st2" x1="135.6" y1="75.3" x2="193.4" y2="75.3"/>
<line class="st2" x1="135.6" y1="66.3" x2="193.4" y2="66.3"/>
<line class="st3" x1="135.6" y1="84.3" x2="180.1" y2="84.3"/>
<ellipse cx="186" cy="84.2" rx="1.7" ry="1.7"/>
</svg>
