<?xml version="1.0" encoding="utf-8"?>
<!-- Generator: Adobe Illustrator 19.1.0, SVG Export Plug-In . SVG Version: 6.00 Build 0)  -->
<svg version="1.1" id="Calque_1" xmlns="http://www.w3.org/2000/svg" xmlns:xlink="http://www.w3.org/1999/xlink" x="0px" y="0px"
	 viewBox="0 0 283.5 283.5" style="enable-background:new 0 0 283.5 283.5;" xml:space="preserve">
<style type="text/css">
	.st0{fill:#FFFFFF;stroke:#000000;stroke-width:2.606;stroke-miterlimit:10;}
	.st1{fill:none;stroke:#000000;stroke-width:3;stroke-miterlimit:10;}
	.st2{fill:none;stroke:#000000;stroke-width:2.8802;stroke-miterlimit:10;}
</style>
<polygon class="st0" points="166,252.8 50.2,216.4 141.1,107.4 253.9,130.9 "/>
<path class="st1" d="M216.2,50.1"/>
<path class="st1" d="M157.4,96.2"/>
<path class="st1" d="M251,131.6"/>
<path class="st1" d="M149.5,105.5"/>
<line class="st2" x1="140.9" y1="120" x2="236.7" y2="141.4"/>
<line class="st2" x1="134.8" y1="128.9" x2="227.8" y2="150.9"/>
<line class="st2" x1="126.5" y1="138.3" x2="218.4" y2="162.4"/>
<line class="st2" x1="118.9" y1="146.8" x2="209.1" y2="172.3"/>
<polygon class="st0" points="109.2,215.9 76.3,206.2 108.8,164.8 139.9,173.8 "/>
<polygon class="st0" points="157.2,230.9 124.3,221.2 156.8,179.8 187.9,188.8 "/>
<polygon class="st0" points="150.8,213.5 35,177.2 125.9,68.1 238.7,91.6 "/>
<path class="st1" d="M241,80.8"/>
<path class="st1" d="M142.2,56.9"/>
<path class="st1" d="M235.8,92.3"/>
<path class="st1" d="M134.4,66.3"/>
<line class="st2" x1="125.7" y1="80.7" x2="221.5" y2="102.2"/>
<line class="st2" x1="119.6" y1="89.6" x2="212.6" y2="111.6"/>
<line class="st2" x1="111.3" y1="99.1" x2="203.3" y2="123.1"/>
<line class="st2" x1="103.7" y1="107.5" x2="193.9" y2="133.1"/>
<polygon class="st0" points="94.1,176.6 61.1,166.9 93.6,125.6 124.7,134.5 "/>
<polygon class="st0" points="142.1,191.6 109.1,181.9 141.6,140.6 172.7,149.5 "/>
<polygon class="st0" points="147,173.8 31.2,137.4 122.1,28.4 234.9,51.9 "/>
<path class="st1" d="M237.2,41.1"/>
<path class="st1" d="M138.4,17.2"/>
<path class="st1" d="M232,52.6"/>
<path class="st1" d="M130.6,26.5"/>
<line class="st2" x1="121.9" y1="41" x2="217.7" y2="62.4"/>
<line class="st2" x1="115.8" y1="49.9" x2="208.8" y2="71.9"/>
<line class="st2" x1="107.5" y1="59.3" x2="199.4" y2="83.4"/>
<line class="st2" x1="99.9" y1="67.8" x2="190.1" y2="93.3"/>
<polygon class="st0" points="90.2,136.9 57.3,127.2 89.8,85.8 120.9,94.8 "/>
<polygon class="st0" points="138.2,151.9 105.3,142.2 137.8,100.8 168.9,109.8 "/>
</svg>
