<?xml version="1.0" encoding="utf-8"?>
<!-- Generator: Adobe Illustrator 19.1.0, SVG Export Plug-In . SVG Version: 6.00 Build 0)  -->
<svg version="1.1" id="Calque_1" xmlns="http://www.w3.org/2000/svg" xmlns:xlink="http://www.w3.org/1999/xlink" x="0px" y="0px"
	 viewBox="0 0 283.5 283.5" style="enable-background:new 0 0 283.5 283.5;" xml:space="preserve">
<style type="text/css">
	.st0{fill:#FFFFFF;stroke:#000000;stroke-width:3;stroke-miterlimit:10;}
	.st1{fill:none;stroke:#000000;stroke-width:3;stroke-miterlimit:10;}
</style>
<rect x="78.4" y="56.2" class="st0" width="125.2" height="176.1"/>
<line class="st1" x1="87.1" y1="74.3" x2="192.2" y2="74.3"/>
<line class="st1" x1="87" y1="86.5" x2="192" y2="86.5"/>
<line class="st1" x1="86.7" y1="98" x2="191.8" y2="98"/>
<line class="st1" x1="86.5" y1="108.9" x2="191.6" y2="108.9"/>
<line class="st1" x1="87.1" y1="121.3" x2="192.2" y2="121.3"/>
<line class="st1" x1="86.7" y1="145" x2="191.8" y2="145"/>
<line class="st1" x1="86.5" y1="155.9" x2="191.6" y2="155.9"/>
<line class="st1" x1="87.7" y1="132.4" x2="192.8" y2="132.4"/>
<line class="st1" x1="87.3" y1="156.1" x2="192.4" y2="156.1"/>
<line class="st1" x1="87.1" y1="167" x2="192.2" y2="167"/>
<line class="st1" x1="87.7" y1="179.4" x2="192.8" y2="179.4"/>
<line class="st1" x1="87.6" y1="191.7" x2="192.7" y2="191.7"/>
<line class="st1" x1="87.3" y1="203.1" x2="192.4" y2="203.1"/>
<line class="st1" x1="87.1" y1="214" x2="192.2" y2="214"/>
</svg>
