<?xml version="1.0" encoding="utf-8"?>
<!-- Generator: Adobe Illustrator 19.1.0, SVG Export Plug-In . SVG Version: 6.00 Build 0)  -->
<svg version="1.1" id="Calque_1" xmlns="http://www.w3.org/2000/svg" xmlns:xlink="http://www.w3.org/1999/xlink" x="0px" y="0px"
	 viewBox="0 0 283.5 283.5" style="enable-background:new 0 0 283.5 283.5;" xml:space="preserve">
<style type="text/css">
	.st0{fill:#FFFFFF;stroke:#010202;stroke-width:4;stroke-miterlimit:10;}
	.st1{fill:#FFFFFF;stroke:#000000;stroke-width:3;stroke-miterlimit:10;}
	.st2{fill:none;stroke:#010202;stroke-width:4;stroke-miterlimit:10;}
	.st3{fill:#FFFFFF;}
</style>
<ellipse class="st0" cx="97.5" cy="121.7" rx="29.7" ry="40.5"/>
<ellipse class="st1" cx="112.4" cy="112.9" rx="4.8" ry="5.2"/>
<ellipse class="st2" cx="180.8" cy="121.5" rx="29.7" ry="40.5"/>
<ellipse class="st1" cx="166" cy="112.7" rx="4.8" ry="5.2"/>
<path class="st3" d="M99.5,176.6"/>
<path class="st3" d="M178.8,176.5"/>
<path d="M105.9,127.9c0,0,19.4,5.9,19.4-2.7s-1.1,11.9-1.1,11.9l-7,10.2C117.2,147.3,109.1,142.5,105.9,127.9z"/>
<path d="M171.8,127.5c0,0-19.4,5.9-19.4-2.7s1.1,11.9,1.1,11.9l7,10.2C160.5,146.9,168.6,142,171.8,127.5z"/>
<ellipse class="st0" cx="93.9" cy="160.1" rx="29.7" ry="40.5"/>
<ellipse class="st1" cx="108.8" cy="151.3" rx="4.8" ry="5.2"/>
<ellipse class="st0" cx="186.2" cy="159.9" rx="29.7" ry="40.5"/>
<ellipse class="st1" cx="171.4" cy="151.1" rx="4.8" ry="5.2"/>
<path d="M102.3,171.1c0,0,19.4,5.9,19.4-2.7c0-8.6-1.1,11.9-1.1,11.9l-7,10.2C113.7,190.5,105.6,185.7,102.3,171.1z"/>
<path d="M177.3,170.7c0,0-19.4,5.9-19.4-2.7c0-8.6,1.1,11.9,1.1,11.9l7,10.2C166,190.1,174.1,185.2,177.3,170.7z"/>
<polygon class="st1" points="142.9,152.3 138,149.9 133.2,152.6 133.9,147.1 129.9,143.4 135.3,142.4 137.5,137.4 140.1,142.3 
	145.6,142.9 141.8,146.9 "/>
</svg>
