<?xml version="1.0" encoding="utf-8"?>
<!-- Generator: Adobe Illustrator 19.1.0, SVG Export Plug-In . SVG Version: 6.00 Build 0)  -->
<svg version="1.1" id="Calque_1" xmlns="http://www.w3.org/2000/svg" xmlns:xlink="http://www.w3.org/1999/xlink" x="0px" y="0px"
	 viewBox="0 0 595.3 595.3" style="enable-background:new 0 0 595.3 595.3;" xml:space="preserve">
<style type="text/css">
	.st0{fill:#FFFFFF;stroke:#010202;stroke-width:10;stroke-miterlimit:10;}
</style>
<path class="st0" d="M396.9,289h40.7c0,0-139.7-170.4-161.5-143c-13.1,16.4-36.9,87.1-36.9,87.1h-40.7c0,0,22.8-61.7,32.4-81.4
	C251.9,108.2,396.9,289,396.9,289z"/>
<polygon class="st0" points="226.3,257.4 199.4,236.4 172.5,215.5 226.5,215.7 280.6,216 253.4,236.7 "/>
<path class="st0" d="M209.7,287.2L169,287c0,0,138.7,171.2,160.7,143.9c13.1-16.4,37.4-86.9,37.4-86.9l40.7,0.2
	c0,0-23.2,61.6-32.8,81.2C353.6,468.8,209.7,287.2,209.7,287.2z"/>
<polygon class="st0" points="380.1,319.8 406.9,340.9 433.7,362 379.6,361.5 325.6,360.9 352.8,340.3 "/>
</svg>
