<?xml version="1.0" encoding="utf-8"?>
<!-- Generator: Adobe Illustrator 19.1.0, SVG Export Plug-In . SVG Version: 6.00 Build 0)  -->
<svg version="1.1" id="Calque_1" xmlns="http://www.w3.org/2000/svg" xmlns:xlink="http://www.w3.org/1999/xlink" x="0px" y="0px"
	 viewBox="0 0 141.7 141.7" style="enable-background:new 0 0 141.7 141.7;" xml:space="preserve">
<style type="text/css">
	.st0{fill:#BD8E46;}
	.st1{fill:none;}
	.st2{font-family:'GothamBlack';}
	.st3{font-size:22px;}
</style>
<polygon class="st0" points="44.7,81.9 31.7,59.4 44.7,37 70.6,37 83.6,59.4 70.6,81.9 "/>
<polygon class="st0" points="85.2,105.9 72.3,83.5 85.2,61 111.2,61 124.2,83.5 111.2,105.9 "/>
<polygon class="st0" points="44.9,128.7 31.9,106.2 44.9,83.8 70.8,83.8 83.8,106.2 70.8,128.7 "/>
<polygon class="st0" points="85.2,58.9 72.3,36.4 85.2,13.9 111.2,13.9 124.2,36.4 111.2,58.9 "/>
<rect x="19.1" y="15.8" class="st1" width="54.3" height="18.5"/>
<text transform="matrix(1 0 0 1 19.1115 31.8958)" class="st2 st3">BEE.</text>
</svg>
